<svg width="16" height="16" viewBox="0 0 16 16" fill="none" xmlns="http://www.w3.org/2000/svg">
<g id="pinned-tab">
<g id="sc logo">
<path id="Vector" fill-rule="evenodd" clip-rule="evenodd" d="M8.86256 14.7511C5.18009 14.7511 2.19431 11.7131 2.19431 8C2.19431 4.28692 5.18009 1.24895 8.86256 1.24895C10.5877 1.24895 12.2464 1.92405 13.5071 3.13924C13.673 3.34177 13.7725 3.57806 13.7725 3.8481C13.7725 4.42194 13.3412 4.86076 12.7773 4.86076C12.4123 4.86076 12.1137 4.59072 11.6493 4.32067C10.9526 3.8481 10.1232 3.27426 8.96209 3.27426C7.43602 3.27426 6.24171 4.28692 6.24171 5.87342C6.24171 6.88608 6.80569 7.52743 7.40284 7.93249C7.70142 8.13502 8.06635 8.3038 8.43128 8.47257C9.36019 8.87764 10.2559 9.24895 10.2559 10.1941C10.2559 11.0042 9.52607 11.5443 8.72986 11.5443C7.83412 11.5443 7.03791 11.1055 6.44076 10.5316L5.74408 11.5443C6.54028 12.2532 7.56872 12.7257 8.69668 12.7595C10.2891 12.7595 11.5166 11.7468 11.5166 10.1603C11.5166 9.14768 10.9526 8.50633 10.3555 8.10127C10.0569 7.89873 9.69194 7.72996 9.32701 7.56118C8.3981 7.15612 7.50237 6.78481 7.50237 5.83966C7.50237 5.06329 8.16588 4.48945 8.96209 4.48945C9.75829 4.48945 10.3886 4.92827 10.9858 5.33333C11.5498 5.70464 12.1137 6.1097 12.7773 6.1097C14.0047 6.1097 15 5.09705 15 3.88186C15 3.30802 14.7678 2.73418 14.3697 2.29536C12.8768 0.810127 10.9194 0 8.86256 0C4.51659 0 1 3.57806 1 8C1 12.4219 4.51659 16 8.86256 16C10.9526 16 12.9431 15.1561 14.436 13.6709L13.5735 12.7932C12.3128 14.0422 10.654 14.7511 8.86256 14.7511Z" fill="black"/>
</g>
</g>
</svg>
